# xmcd
#
# Track frame offsets: 
#        150
#        2430
#        21374
#        27762
#        44492
#        54233
#        68801
#        71248
#        95207
#        100154
#        110302
#        113316
#        126482
#        133918
#        162420
#        167583
#        186511
#        190393
#        204370
#        206982
#        212240
#        225590
#        227228
#        231485
#        252772
#        258108
#        266130
#        281931
#
# Disc length: 3823 seconds
#
# Revision: 0
# Processed by: cddbd v1.5.2PL0 Copyright (c) Steve Scherf et al.
# Submitted via: ExactAudioCopy v1.2
#
DISCID=a70eed1c
DTITLE=Sonny Rhodes - The Essential Sonny Rhodes - Songs and Stories
DYEAR=2017
DGENRE=Blues
TTITLE0=My Name Is Sonny Rhodes
TTITLE1=I Am Sonny Rhodes
TTITLE2=First Guitar
TTITLE3=Born to Be Blue
TTITLE4=Freddie King and Albert Collins
TTITLE5=Blues Is My Religion
TTITLE6=Transformed
TTITLE7=House Without Love
TTITLE8=1130 Midway Street
TTITLE9=I'll Never Let You Go
TTITLE10=A Blues Prayer
TTITLE11=Hen Pecked Man
TTITLE12=The Turban
TTITLE13=Cigarette Blues
TTITLE14=That's John Lee Hooker!
TTITLE15=Finding out for Myself
TTITLE16=She Didn't Love Me
TTITLE17=Half Smart Woman
TTITLE18=I Got Hip to It
TTITLE19=Nothin' on the Radio
TTITLE20=Ain't No Blues in Town
TTITLE21=Tears of Joy
TTITLE22=Happiness and Cheer
TTITLE23=Texas Christmas
TTITLE24=Johnny Copeland and Albert Collins
TTITLE25=B.B. King Says
TTITLE26=Ballad of Serenity
TTITLE27=Clarence Smith
EXTD=
EXTT0=
EXTT1=
EXTT2=
EXTT3=
EXTT4=
EXTT5=
EXTT6=
EXTT7=
EXTT8=
EXTT9=
EXTT10=
EXTT11=
EXTT12=
EXTT13=
EXTT14=
EXTT15=
EXTT16=
EXTT17=
EXTT18=
EXTT19=
EXTT20=
EXTT21=
EXTT22=
EXTT23=
EXTT24=
EXTT25=
EXTT26=
EXTT27=
PLAYORDER=
